Coordinates
version=1
nRows=26
nColumns=22
inDegrees=yes

Units are S.I. units (second, meters, Newtons, ...)
If the header above contains a line with 'inDegrees', this indicates whether rotational values are in degrees (yes) or radians (no).

endheader
time	pelvis_tilt	pelvis_list	pelvis_rotation	pelvis_tx	pelvis_ty	pelvis_tz	hip_flexion_r	hip_adduction_r	hip_rotation_r	knee_angle_r	ankle_angle_r	subtalar_angle_r	hip_flexion_l	hip_adduction_l	hip_rotation_l	knee_angle_l	ankle_angle_l	subtalar_angle_l	lumbar_extension	lumbar_bending	lumbar_rotation
      4.34000000	     -2.87074277	      4.41463414	     -1.54238082	     -1.07673423	      1.05805472	     -0.32983235	     -2.49559226	     -2.76015662	     -6.68975320	    -17.58207479	     20.49902975	     -4.17670383	     20.76455717	      3.66140605	     -2.88289822	    -10.64151850	      9.25177890	      8.84486550	     -9.07772311	     -7.17858253	     -1.45279230
      4.35000000	     -2.81297635	      3.96283901	     -1.66162316	     -1.08508870	      1.05812290	     -0.32760386	     -2.23171131	     -2.13860209	     -6.61033960	    -17.30184901	     20.53164317	     -4.57754536	     21.35415446	      3.00767436	     -3.28510259	    -11.22829044	      9.97265182	      8.43831942	     -9.39014006	     -6.71849156	     -1.47241475
      4.36000000	     -2.72168648	      3.48240494	     -1.80066747	     -1.09324896	      1.05829614	     -0.32535755	     -2.00044702	     -1.49238661	     -6.49856491	    -17.05471117	     20.49497202	     -4.86776882	     21.93775816	      2.30027160	     -3.81775619	    -11.95374922	     10.57537085	      8.01192892	     -9.72727465	     -6.23713624	     -1.47032437
      4.37000000	     -2.67214928	      3.00946061	     -1.93839885	     -1.10117864	      1.05846274	     -0.32315649	     -1.70235220	     -0.86786678	     -6.42804488	    -16.88025128	     20.41036658	     -5.17605746	     22.61171842	      1.57600903	     -4.50184377	    -12.86651530	     11.09050690	      7.46144110	     -9.99431231	     -5.77248206	     -1.45887058
      4.38000000	     -2.57817745	      2.50586773	     -2.09350808	     -1.10880693	      1.05884255	     -0.32095582	     -1.46931991	     -0.21762270	     -6.32866123	    -16.70309340	     20.23717409	     -5.34107189	     23.24749562	      0.78903695	     -5.32546752	    -13.92515184	     11.43621335	      6.90541614	    -10.28685429	     -5.28595695	     -1.41461813
      4.39000000	     -2.47093019	      2.00826297	     -2.25453076	     -1.11612658	      1.05939092	     -0.31878361	     -1.25294660	      0.41743981	     -6.22626813	    -16.55313363	     19.99133223	     -5.42347972	     23.87130529	     -0.02538096	     -6.28267917	    -15.12788197	     11.64407830	      6.27924661	    -10.56602317	     -4.81722578	     -1.37348936
      4.40000000	     -2.33436409	      1.53540061	     -2.41842119	     -1.12305803	      1.06016075	     -0.31666905	     -1.10891632	      1.02069276	     -6.10607936	    -16.36194541	     19.68381337	     -5.42016320	     24.43683762	     -0.84572277	     -7.35446192	    -16.43697105	     11.70152751	      5.62551904	    -10.83798118	     -4.38561653	     -1.30942286
      4.41000000	     -2.18098426	      1.11633623	     -2.58390830	     -1.12963457	      1.06111221	     -0.31461236	     -0.99678383	      1.55991877	     -5.99186546	    -16.17802540	     19.32863208	     -5.37191856	     24.93710235	     -1.63919217	     -8.48917107	    -17.81445834	     11.65505977	      4.87287052	    -11.08833982	     -4.02263736	     -1.25125432
      4.42000000	     -1.99371243	      0.76480522	     -2.74768518	     -1.13584072	      1.06227243	     -0.31262555	     -0.96033720	      2.02652908	     -5.86032656	    -15.95261561	     18.93570933	     -5.29520266	     25.33088079	     -2.38318592	     -9.64289629	    -19.21599838	     11.52415354	      4.09856705	    -11.33331386	     -3.74157429	     -1.19599614
      4.43000000	     -1.79028983	      0.48945491	     -2.90590922	     -1.14169050	      1.06358923	     -0.31070714	     -0.98114610	      2.41380599	     -5.72119991	    -15.68325223	     18.52157886	     -5.21859152	     25.62466285	     -3.05825414	    -10.75603275	    -20.60856225	     11.34109466	      3.30717296	    -11.55072371	     -3.55090549	     -1.13609923
      4.44000000	     -1.57475322	      0.28596541	     -3.05544766	     -1.14724385	      1.06501948	     -0.30887032	     -1.04026330	      2.72652244	     -5.57591514	    -15.39401230	     18.08696447	     -5.16160304	     25.82265467	     -3.65323438	    -11.76095035	    -21.97367564	     11.15912095	      2.54116757	    -11.74579690	     -3.43925159	     -1.08886690
      4.45000000	     -1.36575848	      0.14645000	     -3.19145553	     -1.15252660	      1.06650117	     -0.30712652	     -1.12183881	      2.97355239	     -5.43623684	    -15.07410452	     17.64065618	     -5.13290546	     25.94871005	     -4.15967948	    -12.59644983	    -23.29848883	     10.99831914	      1.80561566	    -11.90183390	     -3.39436751	     -1.04237055
      4.46000000	     -1.17149759	      0.05911954	     -3.31812854	     -1.15758631	      1.06797990	     -0.30548605	     -1.20256584	      3.16571560	     -5.29962978	    -14.74785946	     17.19329688	     -5.13435370	     26.02037558	     -4.57689455	    -13.22123371	    -24.57963631	     10.88453926	      1.14566215	    -12.01795596	     -3.39602975	     -0.99875543
      4.47000000	     -0.99763806	      0.01387653	     -3.43829141	     -1.16247182	      1.06940630	     -0.30395448	     -1.26207227	      3.31112508	     -5.16524320	    -14.43950474	     16.75468022	     -5.16350341	     26.05836279	     -4.90564251	    -13.60828519	    -25.82443845	     10.82649348	      0.57611817	    -12.09778964	     -3.42930638	     -0.97077162
      4.48000000	     -0.84394053	     -0.01393507	     -3.55676135	     -1.16720195	      1.07076374	     -0.30253711	     -1.30749491	      3.43490016	     -5.02774113	    -14.13320127	     16.31009967	     -5.18412095	     26.07065488	     -5.16175957	    -13.73489464	    -27.03516795	     10.82009716	      0.23504176	    -12.14861042	     -3.46460117	     -0.92424189
      4.49000000	     -0.73014076	     -0.00395096	     -3.67017729	     -1.17180636	      1.07196363	     -0.30126044	     -1.28952903	      3.51253745	     -4.90256435	    -13.88265043	     15.94706089	     -5.28010113	     26.08937284	     -5.31672739	    -13.62040938	    -28.21346694	     10.83414112	     -0.24462901	    -12.15125855	     -3.51911731	     -0.90729626
      4.50000000	     -0.61940468	      0.01661834	     -3.80111433	     -1.17631554	      1.07309251	     -0.30009178	     -1.24876925	      3.56769276	     -4.78025493	    -13.67806989	     15.55549115	     -5.33938409	     26.07339600	     -5.40371861	    -13.28145238	    -29.35533120	     10.85044474	     -0.46763053	    -12.15651292	     -3.57023190	     -0.85378618
      4.51000000	     -0.54845783	      0.04705258	     -3.93342963	     -1.18075461	      1.07404068	     -0.29906737	     -1.13715255	      3.60458581	     -4.65941749	    -13.53812346	     15.21584140	     -5.45080678	     26.08173618	     -5.42209745	    -12.74510610	    -30.48502707	     10.88348521	     -0.67805933	    -12.12512068	     -3.60485689	     -0.82738553
      4.52000000	     -0.48465536	      0.08242074	     -4.07925393	     -1.18509005	      1.07488024	     -0.29815132	     -1.00611840	      3.62724367	     -4.52681353	    -13.43305928	     14.90378764	     -5.55575680	     26.07000352	     -5.38516494	    -12.06036869	    -31.59094651	     10.90824411	     -0.77425280	    -12.08867955	     -3.63130455	     -0.78663204
      4.53000000	     -0.43277157	      0.12126518	     -4.23370421	     -1.18933440	      1.07559351	     -0.29734540	     -0.84212053	      3.63653920	     -4.39138771	    -13.37882164	     14.63504137	     -5.67039827	     26.04792771	     -5.29882520	    -11.25637398	    -32.67888086	     10.93454237	     -0.78957237	    -12.04396596	     -3.64523813	     -0.73978019
      4.54000000	     -0.38139371	      0.16168660	     -4.39432124	     -1.19346922	      1.07620855	     -0.29663188	     -0.66457065	      3.63599974	     -4.25250252	    -13.36194221	     14.40532602	     -5.78049961	     25.99986580	     -5.17441829	    -10.38691691	    -33.74478971	     10.96414307	     -0.73665497	    -11.99958498	     -3.64934419	     -0.69339219
      4.55000000	     -0.32018991	      0.20330191	     -4.55313926	     -1.19747916	      1.07675221	     -0.29600200	     -0.49373066	      3.62625592	     -4.10670290	    -13.36706355	     14.21056902	     -5.87009057	     25.91405889	     -5.01924075	     -9.48354587	    -34.78762119	     11.00018204	     -0.64396925	    -11.96552974	     -3.64600446	     -0.65734108
      4.56000000	     -0.24976595	      0.24174403	     -4.69974395	     -1.20134781	      1.07723350	     -0.29545533	     -0.33133292	      3.61255748	     -3.97204179	    -13.39199173	     14.05243301	     -5.93689274	     25.79169487	     -4.84366115	     -8.57377479	    -35.80714936	     11.04656768	     -0.52933268	    -11.93811913	     -3.63186494	     -0.63476967
      4.57000000	     -0.16867098	      0.27324883	     -4.82682263	     -1.20506535	      1.07767008	     -0.29498115	     -0.18279809	      3.60025196	     -3.85861989	    -13.43136714	     13.92591287	     -5.97321507	     25.63047792	     -4.65846073	     -7.68055944	    -36.80041027	     11.10186194	     -0.40918303	    -11.91642528	     -3.60540445	     -0.63105674
      4.58000000	     -0.07971284	      0.29271279	     -4.92405860	     -1.20861748	      1.07807121	     -0.29457469	     -0.04865243	      3.59617720	     -3.77927738	    -13.48188043	     13.82489304	     -5.97170749	     25.43428969	     -4.47473655	     -6.81689237	    -37.76634814	     11.16456290	     -0.28980810	    -11.89551675	     -3.56170304	     -0.65211165
      4.59000000	      0.02037172	      0.29877342	     -4.98729423	     -1.21200400	      1.07845263	     -0.29423911	      0.06246671	      3.60274350	     -3.72103482	    -13.53506077	     13.75108571	     -5.92628740	     25.19967137	     -4.29967139	     -5.99946192	    -38.70024472	     11.23550674	     -0.20156344	    -11.88008780	     -3.49699036	     -0.71587971
